<svg width="17" height="7" viewBox="0 0 17 7" fill="none" xmlns="http://www.w3.org/2000/svg">
<path d="M1.3182 0.183986L7.95497 5.56317C8.09978 5.68114 8.29525 5.74731 8.49895 5.74731C8.70264 5.74731 8.89811 5.68114 9.04292 5.56317L15.6811 0.185153C15.8268 0.0672388 16.0229 0.00116703 16.2272 0.00116704C16.4315 0.00116704 16.6276 0.0672388 16.7733 0.185153C16.8451 0.242757 16.9021 0.311604 16.941 0.387639C16.9799 0.463674 17 0.545358 17 0.627877C17 0.710396 16.9799 0.79208 16.941 0.868115C16.9021 0.94415 16.8451 1.013 16.7733 1.0706L10.138 6.44861C9.7009 6.80201 9.11287 7 8.50036 7C7.88786 7 7.29983 6.80201 6.86278 6.44861L0.227425 1.0706C0.155458 1.01298 0.0982513 0.944059 0.0591888 0.867916C0.0201263 0.791773 -3.1033e-08 0.709953 -2.74199e-08 0.627293C-2.38067e-08 0.544634 0.0201263 0.462813 0.0591888 0.38667C0.0982513 0.310527 0.155458 0.241607 0.227425 0.183986C0.373129 0.0660716 0.569241 -7.18211e-07 0.773523 -7.09282e-07C0.977806 -7.00352e-07 1.17392 0.0660716 1.31962 0.183986" fill="white"/>
</svg>
