<svg width="10" height="10" viewBox="0 0 10 10" fill="none" xmlns="http://www.w3.org/2000/svg">
<path d="M9.20015 0.806572C9.13847 0.744769 9.06521 0.695738 8.98456 0.662283C8.90392 0.628829 8.81746 0.611609 8.73015 0.611609C8.64284 0.611609 8.55638 0.628829 8.47573 0.662283C8.39508 0.695738 8.32182 0.744769 8.26015 0.806572L5.00015 4.05991L1.74015 0.799905C1.67843 0.738184 1.60515 0.689224 1.52451 0.65582C1.44387 0.622417 1.35744 0.605225 1.27015 0.605225C1.18286 0.605225 1.09643 0.622417 1.01579 0.65582C0.935144 0.689224 0.86187 0.738184 0.800149 0.799905C0.738428 0.861626 0.689468 0.9349 0.656064 1.01554C0.622661 1.09619 0.605469 1.18262 0.605469 1.26991C0.605469 1.35719 0.622661 1.44362 0.656064 1.52427C0.689468 1.60491 0.738428 1.67818 0.800149 1.73991L4.06015 4.99991L0.800149 8.2599C0.738428 8.32163 0.689468 8.3949 0.656064 8.47554C0.622661 8.55619 0.605469 8.64262 0.605469 8.7299C0.605469 8.81719 0.622661 8.90362 0.656064 8.98427C0.689468 9.06491 0.738428 9.13818 0.800149 9.1999C0.86187 9.26163 0.935144 9.31059 1.01579 9.34399C1.09643 9.37739 1.18286 9.39458 1.27015 9.39458C1.35744 9.39458 1.44387 9.37739 1.52451 9.34399C1.60515 9.31059 1.67843 9.26163 1.74015 9.1999L5.00015 5.9399L8.26015 9.1999C8.32187 9.26163 8.39514 9.31059 8.47579 9.34399C8.55643 9.37739 8.64286 9.39458 8.73015 9.39458C8.81744 9.39458 8.90387 9.37739 8.98451 9.34399C9.06515 9.31059 9.13843 9.26163 9.20015 9.1999C9.26187 9.13818 9.31083 9.06491 9.34423 8.98427C9.37764 8.90362 9.39483 8.81719 9.39483 8.7299C9.39483 8.64262 9.37764 8.55619 9.34423 8.47554C9.31083 8.3949 9.26187 8.32163 9.20015 8.2599L5.94015 4.99991L9.20015 1.73991C9.45348 1.48657 9.45348 1.0599 9.20015 0.806572Z" fill="white"/>
</svg>
